<svg xmlns="http://www.w3.org/2000/svg" viewBox="0 0 118 118"><defs><style>.cls-1{fill:#a5a5a5;}.cls-2{fill:#fff;}.cls-3{fill:#bababa;}.cls-4{fill:none;}</style></defs><title>CloseButton</title><g id="Layer_2" data-name="Layer 2"><g id="Layer_1-2" data-name="Layer 1"><circle class="cls-1" cx="59" cy="59" r="59"/><circle class="cls-2" cx="59" cy="59" r="54.71"/><path class="cls-3" d="M100.13,29.91,28,98.67A50.33,50.33,0,0,1,12.79,79.12l66-66.5A50.45,50.45,0,0,1,100.13,29.91Z"/><path class="cls-1" d="M78.78,12.62l-66,66.5A49.85,49.85,0,0,1,8.58,59a50.42,50.42,0,0,1,70.2-46.38Z"/><path class="cls-1" d="M109.42,59A50.36,50.36,0,0,1,28,98.67l72.17-68.76A49.91,49.91,0,0,1,109.42,59Z"/><polygon class="cls-2" points="52.96 59.35 36.48 68.87 20 78.39 20 59.35 20 40.33 36.48 49.84 52.96 59.35"/><polygon class="cls-2" points="65.04 59.35 81.52 49.84 98 40.33 98 59.35 98 78.39 81.52 68.87 65.04 59.35"/><line class="cls-4" x1="27.96" y1="98.67" x2="27.93" y2="98.69"/><rect class="cls-2" x="58" y="27" width="3" height="64"/></g></g></svg>