<svg xmlns="http://www.w3.org/2000/svg" viewBox="0 0 402 402"><defs><style>.cls-1{fill:#fff;}.cls-2,.cls-3{fill:red;}.cls-2{fill-rule:evenodd;}.cls-4{fill:none;stroke:#fff;stroke-linecap:round;stroke-miterlimit:10;stroke-width:10px;}</style></defs><title>IconApp</title><g id="Layer_2" data-name="Layer 2"><g id="Layer_1-2" data-name="Layer 1"><rect class="cls-1" width="402" height="402" rx="75.6"/><polygon class="cls-2" points="356.27 201.12 290.57 239.05 224.87 276.98 224.87 201.12 224.87 125.25 290.57 163.18 356.27 201.12"/><polygon class="cls-2" points="61.73 201.12 127.43 163.18 193.13 125.25 193.13 201.12 193.13 276.98 127.43 239.05 61.73 201.12"/><rect class="cls-3" x="103" y="197" width="212" height="8" transform="translate(410 -8) rotate(90)"/><path class="cls-4" d="M121.32,148.66a72.12,72.12,0,0,1,72,72"/><path class="cls-4" d="M121.32,164.32a56.42,56.42,0,0,1,56.36,56.36"/><path class="cls-4" d="M121.32,180A40.75,40.75,0,0,1,162,220.68"/><circle class="cls-1" cx="120.53" cy="221.47" r="14.87"/></g></g></svg>