<svg xmlns="http://www.w3.org/2000/svg" viewBox="0 0 118 118"><defs><style>.cls-1{fill:#a5a5a5;}.cls-2{fill:#ff6700;}.cls-3{fill:#bababa;}</style></defs><title>web_down_clicked</title><g id="Layer_2" data-name="Layer 2"><g id="Layer_1-2" data-name="Layer 1"><circle class="cls-1" cx="59" cy="59" r="59"/><circle class="cls-2" cx="59" cy="59" r="54.71"/><path class="cls-3" d="M100.13,29.91,28,98.67A50.33,50.33,0,0,1,12.79,79.12l66-66.5A50.45,50.45,0,0,1,100.13,29.91Z"/><path class="cls-1" d="M78.78,12.62l-66,66.5A49.85,49.85,0,0,1,8.58,59a50.42,50.42,0,0,1,70.2-46.38Z"/><path class="cls-1" d="M109.42,59A50.36,50.36,0,0,1,28,98.67l72.17-68.76A49.91,49.91,0,0,1,109.42,59Z"/><polygon class="cls-2" points="59.42 85 44.07 58.42 28.73 31.84 59.84 43.84 90.11 31.84 74.77 58.42 59.42 85"/></g></g></svg>