<svg xmlns="http://www.w3.org/2000/svg" viewBox="0 0 118 118"><defs><style>.cls-1{fill:#a5a5a5;}.cls-2{fill:#ff6700;}.cls-3{fill:#bababa;}.cls-4{fill:none;}</style></defs><title>web_Cabin_G_clicked</title><g id="Layer_2" data-name="Layer 2"><g id="Layer_1-2" data-name="Layer 1"><circle class="cls-1" cx="59" cy="59" r="59"/><circle class="cls-2" cx="59" cy="59" r="54.71"/><path class="cls-3" d="M100.13,29.91,28,98.67A50.33,50.33,0,0,1,12.79,79.12l66-66.5A50.45,50.45,0,0,1,100.13,29.91Z"/><path class="cls-1" d="M78.78,12.62l-66,66.5A49.85,49.85,0,0,1,8.58,59a50.42,50.42,0,0,1,70.2-46.38Z"/><path class="cls-1" d="M109.42,59A50.36,50.36,0,0,1,28,98.67l72.17-68.76A49.91,49.91,0,0,1,109.42,59Z"/><line class="cls-4" x1="27.96" y1="98.67" x2="27.93" y2="98.69"/><path class="cls-2" d="M76,78.11a44.08,44.08,0,0,1-14.92,2.67c-7.36,0-13.43-1.86-18.15-6.42-4.18-4-6.76-10.46-6.75-18,0-14.48,10-25.08,26.24-25.08A30.62,30.62,0,0,1,74.56,33.5L73,38.61a24.82,24.82,0,0,0-10.72-2.07C50.5,36.54,42.78,43.86,42.78,56S50.16,75.6,61.51,75.6c4.1,0,6.88-.58,8.33-1.31V59.83H60v-5H76Z"/></g></g></svg>