<svg xmlns="http://www.w3.org/2000/svg" viewBox="0 0 118 118"><defs><style>.cls-1{fill:#a5a5a5;}.cls-2{fill:#ff6700;}.cls-3{fill:#bababa;}.cls-4{fill:none;}</style></defs><title>web_Cabin_3A_clicked</title><g id="Layer_2" data-name="Layer 2"><g id="Layer_1-2" data-name="Layer 1"><circle class="cls-1" cx="59" cy="59" r="59"/><circle class="cls-2" cx="59" cy="59" r="54.71"/><path class="cls-3" d="M100.13,29.91,28,98.67A50.33,50.33,0,0,1,12.79,79.12l66-66.5A50.45,50.45,0,0,1,100.13,29.91Z"/><path class="cls-1" d="M78.78,12.62l-66,66.5A49.85,49.85,0,0,1,8.58,59a50.42,50.42,0,0,1,70.2-46.38Z"/><path class="cls-1" d="M109.42,59A50.36,50.36,0,0,1,28,98.67l72.17-68.76A49.91,49.91,0,0,1,109.42,59Z"/><line class="cls-4" x1="27.96" y1="98.67" x2="27.93" y2="98.69"/><path class="cls-2" d="M22.28,76.05A21.43,21.43,0,0,0,32.67,79c8.08,0,10.62-5.15,10.59-9.07-.08-6.58-6-9.36-12.11-9.37H27.61V55.77h3.55c4.6,0,10.43-2.37,10.43-7.9,0-3.76-2.39-7.06-8.23-7.06A17.2,17.2,0,0,0,24,43.9l-1.7-4.58A22.17,22.17,0,0,1,34.57,35.7C43.83,35.7,48,41.15,48,46.88c0,4.84-3,8.94-8.64,11V58c5.76,1.1,10.41,5.47,10.41,12,0,7.48-5.87,14-17.08,14a23.1,23.1,0,0,1-12.13-3.19Z"/><path class="cls-2" d="M67.79,68l-5,15.25h-6.5l16.5-48.53h7.54L96.9,83.29H90.19L85,68Zm15.94-4.9-4.81-14c-1-3.17-1.78-6.06-2.5-8.85h-.17c-.69,2.84-1.45,5.8-2.4,8.77l-4.78,14Z"/></g></g></svg>