<svg xmlns="http://www.w3.org/2000/svg" xmlns:xlink="http://www.w3.org/1999/xlink" viewBox="0 0 294.7 694"><defs><style>.cls-1{fill:url(#linear-gradient);}.cls-2{fill:url(#linear-gradient-2);}</style><linearGradient id="linear-gradient" x1="147.35" y1="694" x2="147.35" y2="583" gradientTransform="translate(-491.14 785.85) rotate(-90)" gradientUnits="userSpaceOnUse"><stop offset="0.38" stop-color="#ddd"/><stop offset="1" stop-color="#656464"/></linearGradient><linearGradient id="linear-gradient-2" x1="21.1" y1="585.57" x2="273.59" y2="439.79" gradientTransform="translate(-365.34 660.02) rotate(-90)" gradientUnits="userSpaceOnUse"><stop offset="0" stop-color="#fff"/><stop offset="1" stop-color="#6d6c6c"/></linearGradient></defs><title>web_floor_display</title><g id="Layer_2" data-name="Layer 2"><g id="Layer_1-2" data-name="Layer 1"><rect class="cls-1" x="91.85" y="491.15" width="111" height="294.69" transform="translate(785.85 491.14) rotate(90)"/><rect x="-144.15" y="144.16" width="583" height="294.69" transform="translate(438.85 144.15) rotate(90)"/><rect class="cls-2" x="111.01" y="365.34" width="72.66" height="294.69" transform="translate(660.02 365.34) rotate(90)"/><g id="logo_pc"><path d="M113.12,531.22a4.68,4.68,0,0,1-.93,1.16c-.58.7-.92,1-1.15,1s-.24-.12-.24-.35a3.14,3.14,0,0,1,.58-1.62c.35-.7.81-1.05,1.28-1.05.23,0,.34.12.58.24Zm1.16-2h-1.39a3.57,3.57,0,0,0-2.67,1.5,5.31,5.31,0,0,0-1.39,2.78,1.65,1.65,0,0,0,.24,1,.87.87,0,0,0,.81.47,3.07,3.07,0,0,0,1.62-.81,8.73,8.73,0,0,0,1.16-1.63h.11l-.81,2.32h1.86l1.62-5.67A3.89,3.89,0,0,1,114.28,529.26Zm12,2a7.46,7.46,0,0,1-.93,1.28c-.58.58-.93.93-1.16.93s-.11-.12-.11-.35a3.4,3.4,0,0,1,.58-1.62c.34-.7.81-.93,1.15-.93a1,1,0,0,1,.58.12Zm1-2H126.1a3.78,3.78,0,0,0-2.67,1.39,4.89,4.89,0,0,0-1.39,2.78,1.74,1.74,0,0,0,.23,1,1.22,1.22,0,0,0,.93.46c.93,0,1.74-.81,2.55-2.32H126c-.12.47-.23.82-.35,1.28a8.46,8.46,0,0,1-.58,1.39,1.22,1.22,0,0,1-1,.58,5.15,5.15,0,0,1-2.32-.7l.12,1.63a8.05,8.05,0,0,0,1.74.11c2,0,3.24-.81,3.7-2.43l1.51-5.21A5.79,5.79,0,0,1,127.37,529.26Zm3.59,2.66a3.65,3.65,0,0,1,.46-.93,1,1,0,0,1,.82-.46c.23,0,.34.12.34.46C132.47,531.57,131.89,531.92,131,531.92Zm.58,2c-.58,0-.93-.23-.93-.81a3.76,3.76,0,0,0,2.2-.7,2.69,2.69,0,0,0,1.4-1.85,1.19,1.19,0,0,0-1.28-1.27,3.76,3.76,0,0,0-2.78,1.15,4.6,4.6,0,0,0-1.39,2.78,1.56,1.56,0,0,0,.58,1.39,2.14,2.14,0,0,0,1.51.47,10.5,10.5,0,0,0,2.89-.58l.35-1.39A5.29,5.29,0,0,1,131.54,533.89Zm8.46-4.4-.35,1.16a4.9,4.9,0,0,0-1.16-.24c-.46,0-.81.12-.81.47a1.13,1.13,0,0,0,.35.58c.46.34.69.58.69.69a1.9,1.9,0,0,1,.35,1,1.56,1.56,0,0,1-.93,1.39,3.73,3.73,0,0,1-1.73.35,6.77,6.77,0,0,1-2-.35l.34-1.27a3.86,3.86,0,0,0,1.63.46.73.73,0,0,0,.46-.11c.12-.12.23-.23.23-.35a1,1,0,0,0-.35-.7l-.69-.69a1.9,1.9,0,0,1-.35-.93,1.92,1.92,0,0,1,.93-1.39,3.7,3.7,0,0,1,1.62-.34c.35,0,.81.11,1.74.23Zm9.61-2.32-.34,1.16a2.68,2.68,0,0,0-1.16-.35.88.88,0,0,0-.81.46,2.43,2.43,0,0,0-.35.93h1.39l-.35,1H146.6l-1.62,5.8h-2l2-6.72a3.25,3.25,0,0,1,1.27-1.74,3.19,3.19,0,0,1,2-.7A2.75,2.75,0,0,1,149.61,527.17Zm2.32,5.79a1.63,1.63,0,0,1-1.27.93.63.63,0,0,1-.58-.35,1.4,1.4,0,0,1-.12-.69,3.3,3.3,0,0,1,.46-1.51c.35-.58.7-.93,1.28-.93a.65.65,0,0,1,.58.35,1.54,1.54,0,0,1,.11.7A5.49,5.49,0,0,1,151.93,533Zm1.85-3.24a2.1,2.1,0,0,0-1.5-.46,3.75,3.75,0,0,0-2.78,1.15,4.55,4.55,0,0,0-1.39,2.78,1.54,1.54,0,0,0,.58,1.39,2.1,2.1,0,0,0,1.5.47,3.77,3.77,0,0,0,2.78-1.16,4.55,4.55,0,0,0,1.39-2.78A1.91,1.91,0,0,0,153.78,529.72Zm6.61-.35-.58,1.74c-.12-.12-.47-.12-.58-.12-.35,0-.81.23-1.39.93a4.09,4.09,0,0,0-1,1.39l-.47,1.74h-1.85l1.62-5.56H158l-.81,2.43h.12a7.93,7.93,0,0,1,1.16-1.62,2.65,2.65,0,0,1,1.62-.93A.23.23,0,0,1,160.39,529.37Zm7.41.12-.35,1h-.92c-.12.46-.35.93-.47,1.39a12.33,12.33,0,0,1-.34,1.39c0,.35.11.58.34.58a2.05,2.05,0,0,0,.58-.23l-.35,1.16a9,9,0,0,1-1.39.23,2.26,2.26,0,0,1-.92-.23,1.17,1.17,0,0,1-.35-.93,14.77,14.77,0,0,1,.35-1.74c.23-.58,1.16-3.59,1.16-3.59l2-.23-.35,1.16Zm8.92,2.43a3.65,3.65,0,0,1,.46-.93,1,1,0,0,1,.82-.46c.23,0,.34.12.34.46C178.23,531.57,177.76,531.92,176.72,531.92Zm.7,2c-.58,0-.93-.23-.93-.81a3.76,3.76,0,0,0,2.2-.7,2.7,2.7,0,0,0,1.39-1.85,1.33,1.33,0,0,0-.35-.93,1.31,1.31,0,0,0-.92-.34,3.75,3.75,0,0,0-2.78,1.15,4.55,4.55,0,0,0-1.39,2.78,1.54,1.54,0,0,0,.58,1.39,2.1,2.1,0,0,0,1.5.47,10.56,10.56,0,0,0,2.9-.58l.34-1.39A5.29,5.29,0,0,1,177.42,533.89Zm17.72-2a3.65,3.65,0,0,1,.46-.93,1,1,0,0,1,.82-.46c.23,0,.34.12.34.46C196.65,531.57,196.18,531.92,195.14,531.92Zm.7,2c-.58,0-.93-.23-.93-.81a3.76,3.76,0,0,0,2.2-.7,2.7,2.7,0,0,0,1.39-1.85,1.33,1.33,0,0,0-.35-.93,1.31,1.31,0,0,0-.92-.34,3.75,3.75,0,0,0-2.78,1.15,4.5,4.5,0,0,0-1.39,2.78,1.55,1.55,0,0,0,.57,1.39,2.14,2.14,0,0,0,1.51.47,10.56,10.56,0,0,0,2.9-.58l.23-1.39A5,5,0,0,1,195.84,533.89Zm7.41-4.52-.35,1H202c-.12.47-.35,1.05-.47,1.51a12.33,12.33,0,0,1-.34,1.39c0,.35.11.58.34.58a2.05,2.05,0,0,0,.58-.23l-.35,1.16a9,9,0,0,1-1.39.23,2.26,2.26,0,0,1-.92-.23,1.17,1.17,0,0,1-.35-.93,14.77,14.77,0,0,1,.35-1.74c.23-.58,1.16-3.59,1.16-3.59l2-.23-.35,1Zm4.05,0-.34,1H206c-.12.47-.35,1.05-.46,1.51a12,12,0,0,1-.35,1.39c0,.35.12.58.35.58a2.31,2.31,0,0,0,.58-.23l-.35,1.16a9.18,9.18,0,0,1-1.39.23,2.27,2.27,0,0,1-.93-.23,1.17,1.17,0,0,1-.35-.93,5.85,5.85,0,0,1,.35-1.74c.12-.58,1.16-3.59,1.16-3.59l2-.23-.23,1Zm2,2.55a3.7,3.7,0,0,1,.47-.93,1,1,0,0,1,.81-.46c.23,0,.35.12.35.46C210.9,531.57,210.32,531.92,209.27,531.92Zm.7,2c-.7,0-.93-.23-.93-.81a3.76,3.76,0,0,0,2.2-.7,2.68,2.68,0,0,0,1.39-1.85,1.32,1.32,0,0,0-.34-.93,1.34,1.34,0,0,0-.93-.34,3.76,3.76,0,0,0-2.78,1.15,4.55,4.55,0,0,0-1.39,2.78,1.31,1.31,0,0,0,.58,1.39,2.13,2.13,0,0,0,1.5.47,10.49,10.49,0,0,0,2.9-.58l.35-1.39A5.32,5.32,0,0,1,210,533.89Zm-117-2c-.23,2.2,1.16,3.48,3.71,3.48a23.13,23.13,0,0,0,4.06-.47c0-.11.34-1,.46-1.39a.38.38,0,0,0-.23.12,16.55,16.55,0,0,1-3.13.58,2.21,2.21,0,0,1-2.32-2.55c.23-2.32,2.09-4.75,4.4-4.75a7.86,7.86,0,0,1,2.78.58,7.21,7.21,0,0,0,.58-1.51,12.41,12.41,0,0,0-2.89-.35A7.38,7.38,0,0,0,93,531.92Zm94.77-.93c1,0,2.2.23,2.08,1.51s-1.16,1.5-2.08,1.5a2.7,2.7,0,0,1-.93-.11Zm1.27-3.94a1.54,1.54,0,0,1,.7-.11c.58,0,1.27.11,1.27.81a2.16,2.16,0,0,1-1.85,1.85h-.7Zm-4.75,8h4.52c1,0,3.24-.7,3.36-2.67.11-1.16-.93-1.85-2-2.2,1.27-.35,2.78-1.27,2.9-2.66.11-1.86-1.86-1.74-3.25-1.74h-2.89Zm34.64-5.56-.7,1.73c-.11-.11-.46-.11-.57-.11-.35,0-.82.23-1.39.93a4.2,4.2,0,0,0-1,1.39l-.46,1.73h-1.85l1.62-5.56h1.85l-.81,2.44h.12a8.24,8.24,0,0,1,1.15-1.63,2.62,2.62,0,0,1,1.63-.92C218.66,529.26,218.77,529.37,218.89,529.49Zm-98.35,5.44h-1.86s.93-3.13,1-3.71c0,0,0-.23-.11-.11a3.82,3.82,0,0,0-1,1c-.47.58-.82.93-.82,1.16l-.57,1.62h-1.86l1.62-5.67h1.86l-.81,2.43h.11a8.34,8.34,0,0,1,1.16-1.62,2.65,2.65,0,0,1,1.62-.93.71.71,0,0,1,.7.35,1.07,1.07,0,0,1,.11,1.16Zm-15.18,0s.93-3.13,1-3.71c0,0,.12-.23-.11-.11a7.61,7.61,0,0,0-1.05,1c-.46.58-.81.93-.81,1.16l-.46,1.74h-1.85l2.31-7.88h1.86c-.47,1.51-.93,3.13-1.51,4.63h.12a8.17,8.17,0,0,1,1.15-1.62,2.62,2.62,0,0,1,1.63-.92.69.69,0,0,1,.69.34,1.08,1.08,0,0,1,.12,1.16l-1.16,4.17Zm65.68,0s.93-3.13,1.05-3.71c0,0,.11-.23-.12-.11a7.77,7.77,0,0,0-1,1c-.46.58-.81.93-.81,1.16l-.47,1.74H167.8l2.32-7.88H172c-.46,1.51-.93,3.13-1.5,4.63a8.17,8.17,0,0,1,1.15-1.62,2.62,2.62,0,0,1,1.63-.92.7.7,0,0,1,.69.34,1.08,1.08,0,0,1,.12,1.16l-1.16,4.17Z"/><path d="M106.87,520.91h-14l7.06-12.16h14Zm14.13,0h14L128,508.75h-14Zm0-24.32-7.07-12.17-7.06,12.17,7.06,12.16Z"/><path d="M141.27,515.7H147v-2h-5.68v-2.55h6.37V509.1H139v11.81h8.81v-2.08h-6.49Zm-.11-17.26,2.43,8.8h2.32l2.54-8.8v8.8h2.21V495.43H147.3l-2.55,8.22-2.44-8.22H139v11.81h2.21Zm51.78-3h2.32v11.81h-2.32Zm2,13.67h2.32v11.81h-2.32Zm21.43-13.67h2.32v11.81h-2.32Zm-64.76,0h2.32v11.81h-2.32Zm61.52,4.63h-4.75v-4.63H206v11.81h2.32V502h4.75v5.21h2.31V495.43H213.1Zm-55.61,7.18h2.43v-9.73h2.78v-2.08h-8.11v2.08h2.9ZM179,520.91h2.43v-9.73h2.9V509.1h-8.11v2.08H179Zm-1.62-13.43c3,0,4.75-1.39,4.75-4.06v-8.11h-2.32v8.34c0,1.05-.81,1.86-2.32,1.86-1.74,0-2.31-1.05-2.31-1.86v-8.22H172.9v8.11C172.78,506.32,174.64,507.48,177.42,507.48Zm-17.84,8.22h5.56v-2h-5.56v-2.55h6.25V509.1h-8.69v11.81h8.92v-2.08h-6.48Zm25.83-8.46h3.36c2.2,0,3.59-1.27,3.59-3.12A3.26,3.26,0,0,0,190,501a2.59,2.59,0,0,0,1.86-2.67c0-1.73-1.28-2.89-3.71-2.89h-5.33v11.81Zm2.78-1.85h-2.78V502h2.78a1.67,1.67,0,0,1,1.85,1.74A1.86,1.86,0,0,1,188.19,505.39Zm.12-8.11a1.41,1.41,0,0,1,1.39,1.39,1.46,1.46,0,0,1-1.51,1.51h-2.78v-2.9Zm3.7,18a2.85,2.85,0,0,0,2.09-2.9c0-2.08-1.39-3.24-3.82-3.24H185v11.81h2.43v-4.63h2a1.86,1.86,0,0,1,2.08,1.51c.24.92.12,2.31.35,3.12h2.43a26.25,26.25,0,0,1-.46-3.12A2.38,2.38,0,0,0,192,515.24Zm-4.63-.81v-3.25h2.78a1.58,1.58,0,0,1,1.62,1.62,1.64,1.64,0,0,1-1.5,1.63Zm-36.49-5.33h-2.32v11.81h7.88v-2.08h-5.56Zm15.87-6.84c2,.35,3,.7,3,1.86,0,.81-.81,1.5-2.32,1.5a2.16,2.16,0,0,1-2.43-2H162.7c0,2.09,1.28,3.94,4.75,3.94,3.25,0,4.75-1.74,4.75-3.71s-1.16-3-3.36-3.47-3.47-.46-3.47-1.85c0-.93.81-1.39,2.08-1.39s2.09.69,2.09,1.85h2.32c0-1.85-1.39-3.82-4.52-3.82-2.2,0-4.4,1.27-4.4,3.59C162.94,500.64,164.33,501.8,166.76,502.26Zm33.13,0c1.85.35,3,.7,3,1.86,0,.81-.81,1.5-2.31,1.5s-2.44-.92-2.44-2h-2.31c0,2.09,1.27,3.94,4.75,3.94,3.24,0,4.75-1.74,4.75-3.71s-1.16-3-3.36-3.47-3.48-.46-3.48-1.85c0-.93.81-1.39,2.09-1.39s2.08.69,2.08,1.85H205c0-1.85-1.39-3.82-4.52-3.82-2.2,0-4.4,1.27-4.4,3.59C196.07,500.64,197.57,501.8,199.89,502.26Z"/><path d="M171.39,519.06c-2,0-3-1.85-3-4.17s1-4.17,3-4.17a2.54,2.54,0,0,1,2.55,2h2.43a4.78,4.78,0,0,0-5.09-4.06c-3.59,0-5.45,2.78-5.45,6.14s1.86,6.14,5.45,6.14a4.76,4.76,0,0,0,5.09-4.17h-2.43C173.59,518.25,172.9,519.06,171.39,519.06Zm31.86,0c-2,0-3-1.85-3-4.17s1-4.17,3-4.17a2.54,2.54,0,0,1,2.55,2h2.43a4.79,4.79,0,0,0-5.1-4.06c-3.59,0-5.44,2.78-5.44,6.14s1.85,6.14,5.44,6.14a4.77,4.77,0,0,0,5.1-4.17H205.8C205.45,518.25,204.76,519.06,203.25,519.06Z"/></g></g></g></svg>