<svg xmlns="http://www.w3.org/2000/svg" viewBox="0 0 118 118"><defs><style>.cls-1{fill:#a5a5a5;}.cls-2{fill:#fff;}.cls-3{fill:#bababa;}.cls-4{fill:none;}</style></defs><title>web_Cabin_2_normal</title><g id="Layer_2" data-name="Layer 2"><g id="Layer_1-2" data-name="Layer 1"><circle class="cls-1" cx="59" cy="59" r="59"/><circle class="cls-2" cx="59" cy="59" r="54.71"/><path class="cls-3" d="M100.13,29.91,28,98.67A50.33,50.33,0,0,1,12.79,79.12l66-66.5A50.45,50.45,0,0,1,100.13,29.91Z"/><path class="cls-1" d="M78.78,12.62l-66,66.5A49.85,49.85,0,0,1,8.58,59a50.42,50.42,0,0,1,70.2-46.38Z"/><path class="cls-1" d="M109.42,59A50.36,50.36,0,0,1,28,98.67l72.17-68.76A49.91,49.91,0,0,1,109.42,59Z"/><line class="cls-4" x1="27.96" y1="98.67" x2="27.93" y2="98.69"/><path class="cls-2" d="M44.54,83.29V79.44l5-4.83c12-11.39,17.39-17.47,17.42-24.52,0-4.76-2.26-9.16-9.22-9.16a16.15,16.15,0,0,0-10,4l-2-4.43A20.56,20.56,0,0,1,59,35.7c10.07,0,14.3,6.92,14.3,13.58C73.27,58,67,65,57.15,74.41l-3.7,3.49v.15h21v5.24Z"/></g></g></svg>