<svg xmlns="http://www.w3.org/2000/svg" viewBox="0 0 118 118"><defs><style>.cls-1{fill:#a5a5a5;}.cls-2{fill:#ff6700;}.cls-3{fill:#bababa;}.cls-4{fill:none;}</style></defs><title>web_Cabin_3B_clicked</title><g id="Layer_2" data-name="Layer 2"><g id="Layer_1-2" data-name="Layer 1"><circle class="cls-1" cx="59" cy="59" r="59"/><circle class="cls-2" cx="59" cy="59" r="54.71"/><path class="cls-3" d="M100.13,29.91,28,98.67A50.33,50.33,0,0,1,12.79,79.12l66-66.5A50.45,50.45,0,0,1,100.13,29.91Z"/><path class="cls-1" d="M78.78,12.62l-66,66.5A49.85,49.85,0,0,1,8.58,59a50.42,50.42,0,0,1,70.2-46.38Z"/><path class="cls-1" d="M109.42,59A50.36,50.36,0,0,1,28,98.67l72.17-68.76A49.91,49.91,0,0,1,109.42,59Z"/><line class="cls-4" x1="27.96" y1="98.67" x2="27.93" y2="98.69"/><path class="cls-2" d="M25.54,76.05A21.46,21.46,0,0,0,35.93,79c8.09,0,10.63-5.15,10.59-9.07-.08-6.58-6-9.36-12.11-9.37H30.87V55.77h3.55c4.6,0,10.43-2.37,10.43-7.9,0-3.76-2.39-7.06-8.22-7.06a17.14,17.14,0,0,0-9.34,3.09l-1.71-4.58A22.17,22.17,0,0,1,37.83,35.7c9.26,0,13.45,5.45,13.45,11.18,0,4.84-2.94,8.94-8.64,11V58c5.76,1.1,10.41,5.47,10.41,12,0,7.48-5.87,14-17.08,14a23,23,0,0,1-12.12-3.19Z"/><path class="cls-2" d="M63.18,35.43a58.19,58.19,0,0,1,11.45-1c6.29,0,10.31,1.07,13.32,3.52a10.33,10.33,0,0,1,4,8.6c0,4.69-3.12,8.82-8.2,10.63v.19c4.62,1.11,10,4.92,10,12.18a12.74,12.74,0,0,1-4.15,9.66c-3.34,3.14-8.81,4.56-16.76,4.56a84.55,84.55,0,0,1-9.73-.54Zm6.26,19.88h5.74c6.57,0,10.45-3.49,10.45-8.2,0-5.62-4.26-7.9-10.61-7.9a25.12,25.12,0,0,0-5.58.45Zm0,23.21a28.71,28.71,0,0,0,5.28.32c6.51,0,12.49-2.38,12.49-9.44,0-6.6-5.71-9.37-12.55-9.38H69.44Z"/></g></g></svg>